:SAMPLES-PER-SECOND 30
:FULLY-SPECIFIED
:DEGREES
110
root  44.6332 39.2207 1.39154 -161.669 -66.9805 169.984
RightUpLeg  -25.6964 -19.4635 -2.15792
RightLeg  27.1112 -6.78996 -3.99638
RightFoot  -9.59445 -0.0964713 2.05341
RightToes  0.000482159 0.542163 -0.142577
Spine  29.4875 -3.01582 1.68913
Spine1  5.56321 -5.76647 10.7391
HEad  13.2933 -23.5055 2.18248
LeftShoulder1  8.38601 -13.9851 -41.6016
LeftArm  -5.17084 -6.53284 -35.344
LeftForeArm  38.9862 -27.9451 -3.93896
LeftHand  -0.25398 0.0180481 5.50724
RightShoulder  4.29261 8.19343 30.7457
RightArm  -6.78632 -7.22398 36.875
RightForeArm  -7.2597 34.8487 8.23312
RightHand  -2.76435 7.26807 -25.3636
LeftUpLeg  -30.5183 14.684 -9.30318
LeftLeg  28.1073 10.9011 6.56877
LeftFoot  -5.21041 -0.0649123 1.8061
LeftToes  1.06246e-005 4.65855e-005 -8.18503e-006
111
root  45.528 39.1238 1.2995 -159.06 -69.8075 168.345
RightUpLeg  -28.404 -20.1386 -1.07249
RightLeg  28.3138 -7.35591 -4.51166
RightFoot  -8.88655 -0.102733 1.98092
RightToes  0.000482159 0.542163 -0.142577
Spine  30.5437 -2.92929 2.58426
Spine1  5.58556 -5.28028 10.3543
HEad  10.895 -22.9445 2.63512
LeftShoulder1  8.50986 -14.2475 -41.5905
LeftArm  -3.834 -7.49793 -35.9118
LeftForeArm  39.3181 -27.3445 -3.79206
LeftHand  -0.25398 0.0180481 5.50724
RightShoulder  4.21815 8.09604 30.406
RightArm  -8.21331 -6.90435 37.0065
RightForeArm  -6.61373 35.8689 8.49583
RightHand  -2.73314 7.19868 -25.221
LeftUpLeg  -30.0722 17.5327 -10.1392
LeftLeg  27.5026 10.0126 5.96422
LeftFoot  -5.56314 -0.047679 1.59416
LeftToes  1.06246e-005 4.65855e-005 -8.18503e-006
112
root  46.4265 38.9295 1.23747 -156.511 -71.5186 167.177
RightUpLeg  -31.9602 -19.2726 -0.0763578
RightLeg  29.9358 -7.74194 -5.03126
RightFoot  -8.00043 -0.100225 1.58895
RightToes  0.000482159 0.542163 -0.142577
Spine  31.9343 -2.68256 3.13427
Spine1  5.25154 -4.46527 9.53926
HEad  8.42514 -21.5221 2.64259
LeftShoulder1  8.63915 -14.468 -41.7127
LeftArm  -4.64162 -6.90026 -35.8736
LeftForeArm  41.622 -30.3806 -4.35055
LeftHand  -0.25398 0.0180481 5.50724
RightShoulder  4.07576 7.88334 29.8269
RightArm  -9.36012 -6.44284 37.5482
RightForeArm  -5.99801 38.2287 9.18567
RightHand  -2.7502 7.10058 -25.5601
LeftUpLeg  -30.7886 18.9641 -10.667
LeftLeg  25.7175 5.93525 3.44326
LeftFoot  -6.62447 -0.0156737 1.37409
LeftToes  1.06246e-005 4.65855e-005 -8.18503e-006
113
root  47.3483 38.6509 1.18869 -152.93 -73.4259 165.239
RightUpLeg  -36.0543 -19.6258 1.35101
RightLeg  31.5872 -7.95498 -5.48677
RightFoot  -7.65715 -0.0667783 0.445187
RightToes  0.000482159 0.542163 -0.142577
Spine  33.376 -2.71708 3.37037
Spine1  4.71323 -4.23832 9.23342
HEad  5.42124 -19.2367 2.63363
LeftShoulder1  8.74291 -14.5696 -41.9959
LeftArm  -6.46475 -5.34181 -35.1664
LeftForeArm  44.9581 -36.8242 -5.73835
LeftHand  -0.25398 0.0180481 5.50724
RightShoulder  4.00084 7.781 29.4814
RightArm  -10.4963 -5.56971 38.0813
RightForeArm  -4.85988 42.0807 10.4225
RightHand  -2.69255 6.7326 -25.7658
LeftUpLeg  -33.6865 18.0171 -11.2386
LeftLeg  25.1779 3.06808 1.90482
LeftFoot  -6.96782 -0.0433468 2.19934
LeftToes  1.06246e-005 4.65855e-005 -8.18503e-006
114
root  48.2856 38.3104 1.1598 -148.697 -76.0782 162.41
RightUpLeg  -40.1334 -21.7825 3.57527
RightLeg  33.2276 -8.25303 -6.03138
RightFoot  -8.03506 -0.022206 -1.1361
RightToes  0.000482159 0.542163 -0.142577
Spine  34.8191 -3.15564 4.12653
Spine1  4.52996 -4.65613 9.34534
HEad  1.57167 -17.0634 3.05851
LeftShoulder1  8.81167 -14.7011 -42.0224
LeftArm  -7.84019 -4.2581 -34.4398
LeftForeArm  47.5152 -44.4998 -7.79882
LeftHand  -0.25398 0.0180481 5.50724
RightShoulder  4.01512 7.83115 29.4495
RightArm  -12.0515 -4.40914 38.5103
RightForeArm  -2.51154 47.3821 12.3905
RightHand  -2.64516 6.49115 -25.8196
LeftUpLeg  -37.7351 14.9373 -11.2679
LeftLeg  26.5971 3.26093 2.12242
LeftFoot  -5.82573 -0.113187 3.08536
LeftToes  1.06246e-005 4.65855e-005 -8.18503e-006
115
root  49.2154 37.9006 1.13441 -146.678 -78.4212 161.1
RightUpLeg  -43.6133 -23.3803 5.99424
RightLeg  35.1476 -8.80468 -6.8681
RightFoot  -8.70351 -0.00686102 -2.24318
RightToes  0.000482159 0.542163 -0.142577
Spine  36.6936 -3.38936 5.36679
Spine1  5.04108 -4.73733 9.18699
HEad  -2.59158 -15.6476 3.65689
LeftShoulder1  8.82135 -14.9521 -41.4561
LeftArm  -8.61326 -4.30947 -34.4506
LeftForeArm  49.3786 -51.3873 -10.2131
LeftHand  -0.25398 0.0180481 5.50724
RightShoulder  4.01722 7.91383 29.2066
RightArm  -13.7785 -3.42978 39.1066
RightForeArm  0.757398 53.832 15.4759
RightHand  -2.72921 6.68659 -26.1921
LeftUpLeg  -41.4463 11.9801 -10.3694
LeftLeg  29.2457 4.18673 2.87427
LeftFoot  -4.50066 -0.153541 3.0304
LeftToes  1.06246e-005 4.65855e-005 -8.18503e-006
116
root  50.1286 37.4265 1.07827 -148.926 -79.724 163.438
RightUpLeg  -46.3186 -22.9911 7.86829
RightLeg  37.413 -9.59419 -8.06015
RightFoot  -9.18939 -0.0122878 -2.64571
RightToes  0.000482159 0.542163 -0.142577
Spine  39.0758 -3.08429 6.13743
Spine1  5.93682 -4.07114 8.76582
HEad  -5.97949 -14.5461 3.73192
LeftShoulder1  8.74062 -15.1231 -40.6348
LeftArm  -9.07781 -4.93376 -35.1455
LeftForeArm  52.0844 -57.0856 -12.8039
LeftHand  -0.25398 0.0180481 5.50724
RightShoulder  3.94596 7.93702 28.4954
RightArm  -14.8901 -2.6393 39.9347
RightForeArm  5.26338 60.6164 20.0727
RightHand  -2.77547 6.68825 -26.6174
LeftUpLeg  -44.5587 10.6647 -9.04715
LeftLeg  32.1876 4.08911 3.116
LeftFoot  -4.17369 -0.136707 2.58209
LeftToes  1.06246e-005 4.65855e-005 -8.18503e-006
117
root  51.0043 36.8806 0.994735 -153.364 -80.7388 167.746
RightUpLeg  -48.8918 -22.1867 9.57537
RightLeg  40.0912 -10.225 -9.37811
RightFoot  -9.60626 -0.021071 -2.90168
RightToes  0.000482159 0.542163 -0.142577
Spine  41.4616 -2.73334 6.34686
Spine1  6.62083 -3.44055 8.61784
HEad  -8.03876 -13.0992 3.13801
LeftShoulder1  8.60773 -15.0455 -40.1449
LeftArm  -9.29809 -5.33324 -35.7624
LeftForeArm  56.7337 -62.0819 -15.7051
LeftHand  -0.25398 0.0180481 5.50724
RightShoulder  3.86335 7.92353 27.7945
RightArm  -14.921 -1.56968 40.7256
RightForeArm  12.4835 66.656 26.2589
RightHand  -2.51829 5.73274 -26.2116
LeftUpLeg  -47.6712 10.1921 -7.80188
LeftLeg  35.3346 3.58624 3.0925
LeftFoot  -4.416 -0.132472 2.62571
LeftToes  1.06246e-005 4.65855e-005 -8.18503e-006
118
root  51.8239 36.266 0.919083 -157.55 -82.342 171.746
RightUpLeg  -51.7904 -22.5397 11.5079
RightLeg  43.1606 -10.4557 -10.6255
RightFoot  -10.1732 -0.0355348 -3.25935
RightToes  0.000482159 0.542163 -0.142577
Spine  43.5265 -2.87978 6.69854
Spine1  6.74066 -3.44967 8.69811
HEad  -9.29845 -11.4172 2.52952
LeftShoulder1  8.52449 -14.9078 -40.0461
LeftArm  -9.22944 -5.23067 -35.826
LeftForeArm  63.1119 -66.6515 -19.2515
LeftHand  -0.25398 0.0180481 5.50724
RightShoulder  3.83617 7.944 27.4873
RightArm  -14.1706 -0.253819 41.4371
RightForeArm  23.3223 71.4408 33.9845
RightHand  -2.02433 4.07775 -24.7779
LeftUpLeg  -50.9087 9.15772 -6.66783
LeftLeg  38.7397 3.45564 3.34768
LeftFoot  -4.37297 -0.141861 2.7865
LeftToes  1.06246e-005 4.65855e-005 -8.18503e-006
119
root  52.6066 35.6095 0.858722 -161.506 -84.071 175.277
RightUpLeg  -54.6236 -23.1832 13.0737
RightLeg  46.4265 -10.5448 -11.9637
RightFoot  -10.7122 -0.052527 -3.60674
RightToes  0.000482159 0.542163 -0.142577
Spine  45.5284 -3.27819 7.20976
Spine1  6.39394 -3.62323 8.43111
HEad  -10.6382 -10.0286 2.44618
LeftShoulder1  8.5498 -14.9812 -40.0014
LeftArm  -8.9089 -4.71147 -35.5456
LeftForeArm  70.8123 -70.8439 -23.9575
LeftHand  -0.25398 0.0180481 5.50724
RightShoulder  3.83516 8.01708 27.259
RightArm  -13.2053 0.656124 42.3265
RightForeArm  37.6427 75.185 44.0466
RightHand  -1.53422 2.35853 -22.971
LeftUpLeg  -53.7795 7.66102 -5.60587
LeftLeg  42.0648 3.47317 3.74228
LeftFoot  -4.26287 -0.118754 2.41149
LeftToes  1.06246e-005 4.65855e-005 -8.18503e-006
120
root  53.3853 34.9246 0.790296 -165.007 -85.1002 177.958
RightUpLeg  -56.9105 -22.7441 13.657
RightLeg  49.7515 -10.7952 -13.6955
RightFoot  -11.03 -0.0633357 -4.10325
RightToes  0.000482159 0.542163 -0.142577
Spine  47.7464 -3.36766 7.24099
Spine1  5.92993 -3.41667 7.7205
HEad  -12.3892 -8.97323 2.68239
LeftShoulder1  8.62903 -15.2083 -39.8695
LeftArm  -8.41806 -3.89394 -35.2946
LeftForeArm  80.6545 -74.7691 -30.9062
LeftHand  -0.25398 0.0180481 5.50724
RightShoulder  3.79124 8.08617 26.661
RightArm  -12.0959 1.00786 43.4877
RightForeArm  55.368 77.9591 57.6289
RightHand  -1.06109 0.401538 -21.1747
LeftUpLeg  -56.0925 6.64199 -4.79691
LeftLeg  45.1199 3.35001 4.00532
LeftFoot  -4.55282 -0.0783408 1.75122
LeftToes  1.06246e-005 4.65855e-005 -8.18503e-006
121
root  54.1626 34.1986 0.714169 -167.808 -85.6345 179.555
RightUpLeg  -58.7506 -21.6241 13.622
RightLeg  53.1486 -11.0774 -15.7776
RightFoot  -11.3033 -0.0748201 -4.851
RightToes  0.000482159 0.542163 -0.142577
Spine  50.0502 -3.15727 6.78214
Spine1  5.60675 -3.07686 7.06175
HEad  -14.2986 -7.92126 2.77782
LeftShoulder1  8.66834 -15.3382 -39.7653
LeftArm  -7.8383 -2.91194 -35.1672
LeftForeArm  94.8627 -78.3831 -42.4158
LeftHand  -0.25398 0.0180481 5.50724
RightShoulder  3.69093 8.08986 25.7502
RightArm  -10.5205 1.41501 44.7392
RightForeArm  75.3757 79.5686 73.0845
RightHand  -0.574216 -1.98031 -19.1409
LeftUpLeg  -58.0758 6.10073 -4.24927
LeftLeg  48.1205 3.22098 4.27527
LeftFoot  -4.93163 -0.0478531 1.2432
LeftToes  1.06246e-005 4.65855e-005 -8.18503e-006
